<svg width="48" height="48" viewBox="0 0 48 48" fill="none" xmlns="http://www.w3.org/2000/svg">
  <!-- Dış çember -->
  <circle cx="24" cy="24" r="24" fill="#303A4D"/>
  
  <!-- Beyaz arka plan dairesi -->
  <circle cx="24" cy="24" r="22" fill="white"/>
  
  <!-- WhatsApp ikonu -->
  <path fill-rule="evenodd" clip-rule="evenodd" d="M40.8 7.2C36.4 2.8 30.4 0 24 0C10.8 0 0 10.8 0 24C0 28.2 1.2 32.2 3.6 35.8L0 48L12.6 44.6C16 46.6 20 47.8 24 47.8C37.2 47.8 48 37 48 23.8C48 17.4 45.2 11.6 40.8 7.2ZM24 43.8C20.4 43.8 17 42.6 14 40.8L13.2 40.2L5.8 42.2L7.8 35L7.2 34.2C5.2 31 4.2 27.6 4.2 24C4.2 13 13 4.2 24 4.2C29.4 4.2 34.4 6.4 38.2 10.2C42 14 44.2 19 44.2 24.4C44 35 35 43.8 24 43.8Z" fill="#303A4D"/>
  <path d="M34.8 29C34.2 28.8 31.2 27.4 30.6 27.2C30 27 29.6 26.8 29.2 27.6C28.8 28.2 27.8 29.6 27.4 30C27 30.4 26.6 30.4 26 30.2C22.6 28.6 20.4 27.2 18.2 23.4C17.6 22.4 18.8 22.6 20 20.2C20.2 19.8 20 19.4 19.8 19C19.6 18.6 18.4 15.6 18 14.4C17.4 13.2 17 13.4 16.4 13.4H15.2C14.8 13.4 14 13.6 13.4 14.4C12.8 15 11.4 16.6 11.4 19.6C11.4 22.6 13.6 25.4 13.8 25.8C14.2 26.2 18.4 32.6 24.6 35.2C26.2 35.8 27.4 36.2 28.4 36.4C30 36.8 31.4 36.8 32.6 36.6C33.8 36.2 36.4 35 36.8 33.6C37.4 32.2 37.4 31 37.2 30.8C37 30.4 36.6 30.2 35.8 30L34.8 29Z" fill="#303A4D"/>
</svg>
